<?xml version="1.0" encoding="UTF-8" standalone="no"?>
<svg xmlns="http://www.w3.org/2000/svg" width="50" height="50" viewBox="0 0 24 24" fill="none">
  <rect width="24" height="24" rx="4" fill="#f5f5f7"/>
  <path d="M16 6H8c-1.1 0-2 .9-2 2v8c0 1.1.9 2 2 2h8c1.1 0 2-.9 2-2V8c0-1.1-.9-2-2-2z" fill="#f5f5f7" stroke="#000000" stroke-width="1"/>
  <rect x="9" y="4" width="6" height="1" rx="0.5" fill="#000000"/>
  <rect x="11" y="17" width="2" height="2" rx="1" fill="#000000"/>
  <path d="M12 4C7.58 4 4 7.58 4 12s3.58 8 8 8 8-3.58 8-8-3.58-8-8-8zm0 14.5c-3.58 0-6.5-2.92-6.5-6.5S8.42 5.5 12 5.5s6.5 2.92 6.5 6.5-2.92 6.5-6.5 6.5z" fill="none" stroke="#000000" stroke-width="0.5"/>
  <path d="M9.5 10.5h5m-5 2h5m-5 2h5" stroke="#000000" stroke-width="0.5" stroke-linecap="round"/>
</svg>