<?xml version="1.0" encoding="UTF-8" standalone="no"?>
<svg xmlns="http://www.w3.org/2000/svg" width="50" height="50" viewBox="0 0 24 24" fill="none">
  <rect width="24" height="24" rx="4" fill="#f0f7ff"/>
  <path d="M4 16L8.293 11.707C8.683 11.317 9.317 11.317 9.707 11.707L14 16M14 16L15.293 14.707C15.683 14.317 16.317 14.317 16.707 14.707L20 18M14 16L11 13" stroke="#0066cc" stroke-width="1.5" stroke-linecap="round" stroke-linejoin="round"/>
  <path d="M18 9.5C18 9.77614 17.7761 10 17.5 10C17.2239 10 17 9.77614 17 9.5C17 9.22386 17.2239 9 17.5 9C17.7761 9 18 9.22386 18 9.5Z" fill="#0066cc"/>
  <rect x="3" y="3" width="18" height="18" rx="4" stroke="#0066cc" stroke-width="1.5"/>
</svg>